<svg xmlns="http://www.w3.org/2000/svg" width="21" height="22" viewBox="0 0 21 22">
    <path fill="#FFF" fill-rule="nonzero" d="M8.442 0l-.496 3.214a8.134 8.134 0 0 0-2.822 1.614L2.102 3.605 0 7.115l2.518 2.07A8.192 8.192 0 0 0 2.31 11c0 .625.076 1.23.208 1.815L0 14.885l2.102 3.51 3.022-1.223a8.133 8.133 0 0 0 2.822 1.614L8.442 22h4.093l.496-3.214a8.133 8.133 0 0 0 2.821-1.614l3.022 1.223 2.103-3.51-2.518-2.07c.132-.585.207-1.19.207-1.815s-.075-1.23-.207-1.815l2.518-2.07-2.103-3.51-3.022 1.223a8.134 8.134 0 0 0-2.821-1.614L12.535 0H8.442zm1.998 5.884A5.124 5.124 0 0 1 15.557 11a5.124 5.124 0 0 1-5.117 5.116A5.124 5.124 0 0 1 5.324 11a5.124 5.124 0 0 1 5.116-5.116z"/>
</svg>
