<?xml version="1.0" encoding="UTF-8"?>
<svg width="134px" height="29px" viewBox="0 0 134 29" version="1.1" xmlns="http://www.w3.org/2000/svg" xmlns:xlink="http://www.w3.org/1999/xlink">
    <!-- Generator: sketchtool 41 (35326) - http://www.bohemiancoding.com/sketch -->
    <title>3391B8EB-85B8-40D0-A325-13DE09899535</title>
    <desc>Created with sketchtool.</desc>
    <defs></defs>
    <g id="Symbols" stroke="none" stroke-width="1" fill="none" fill-rule="evenodd">
        <g id="Icon-/-Logo">
            <g id="Group-2">
                <g id="Group-9">
                    <g id="Page-1">
                        <polygon id="Fill-8" fill="#97D700" points="31 17.9641381 30.4082907 17.9641381 30.4082907 19.15463 29.2214206 19.15463 29.2214206 20.3449567 28.6295469 20.3449567 28.6295469 20.9402853 27.4227887 20.9402853 27.4227887 21.8307157 26.8669108 21.8307157 26.8669108 23.318624 26.2658328 23.318624 25.375639 23.318624 23.8963659 23.318624 23.8963659 24.8065322 22.4170927 24.8065322 22.4170927 26 16.5 26 10.8764609 26 10.8764609 24.8065322 9.10363414 24.8065322 9.10363414 23.318624 7.62436097 23.318624 6.73400288 23.318624 6.13292488 23.318624 6.13292488 21.8307157 5.57721126 21.8307157 5.57721126 20.9402853 4.37028871 20.9402853 4.37028871 20.3449567 3.77857944 20.3449567 3.77857944 19.15463 2.59170927 19.15463 2.59170927 17.9641381 2 17.9641381 2 15.8790827 3.18341854 15.8790827 3.18341854 14.9845191 3.18341854 13.7941925 3.77529217 13.7941925 3.77529217 12.9032661 4.36700144 12.9032661 4.95871071 12.9032661 4.95871071 12.0085373 4.95871071 11.4153579 5.55058434 11.4153579 5.55058434 9.92744959 4.95871071 9.92744959 4.95871071 8.43954133 4.36700144 8.43954133 4.36700144 5.46107963 4.95871071 5.46107963 4.95871071 3.08009576 5.55058434 3.08009576 5.55058434 2.48790827 6.14229361 2.48790827 6.14229361 1 7.62436097 1 7.62436097 2.48823891 8.50929505 2.48823891 8.50929505 3.97581653 9.10363414 3.97581653 9.10363414 4.91981166 9.99349913 4.91981166 9.99349913 6.05624293 12.0621805 6.05624293 12.0621805 6.52939776 20.9378195 6.52939776 20.9378195 6.05624293 23.0063365 6.05624293 23.0063365 4.91981166 23.8963659 4.91981166 23.8963659 3.97581653 24.4905406 3.97581653 24.4905406 2.48823891 25.375639 2.48823891 25.375639 1 26.8577064 1 26.8577064 2.48790827 27.4494157 2.48790827 27.4494157 3.08009576 28.0411249 3.08009576 28.0411249 5.46107963 28.6329986 5.46107963 28.6329986 8.43954133 28.0411249 8.43954133 28.0411249 9.92744959 27.4494157 9.92744959 27.4494157 11.4153579 28.0411249 11.4153579 28.0411249 12.0085373 28.0411249 12.9032661 28.6329986 12.9032661 29.2247078 12.9032661 29.2247078 13.7941925 29.8164171 13.7941925 29.8164171 14.9845191 29.8164171 15.8790827 31 15.8790827"></polygon>
                        <polygon id="Fill-9" fill="#AFF000" points="10.5006664 7.48657538 10.5006664 5.22908569 9.00133274 5.22908569 9.00133274 3.61454285 7.50199911 3.61490163 7.50199911 2 6 2 6.00266548 5.22908569 7.50199911 5.22908569 7.50199911 6.84362854 8.70246557 6.84362854 9.00133274 6.84362854 9.00133274 8 12 8 12 7.48657538"></polygon>
                        <polygon id="Fill-10" fill="#AFF000" points="29.7589238 13.8981667 29.1384718 13.8981667 29.1384718 13 27.8973956 13 27.8973956 11.5 27.2769437 11.5 27.2769437 10 27.8953275 10 27.8973956 8.494 28.5178476 8.494 28.5178476 5.49733333 27.8973956 5.49733333 27.8989468 3.0975 27.2767714 3.0975 27.2767714 2.5 26.659594 2.5 26.659594 1 25.1022597 1 25.1022597 1.897 25.1022597 4 26.6533895 4 26.6533895 7 27.2745308 7 27.2745308 8.5 26.6533895 8.5 26.6533895 10 25.1022597 10 25.1022597 11.5 26.6540789 11.5 26.6540789 12.0985 26.6540789 12.698 26.6533895 12.698 26.6533895 14.5 28.2045193 14.5 28.2045193 15.0983333 28.2045193 16 29.2391229 16 29.2391229 18.102 28.2045193 18.102 28.2045193 19.3021667 28.2045193 19.9021667 26.6533895 19.9021667 26.6533895 20.5 26.6533895 20.5023333 26.6533895 21.1023333 25.1022597 21.1023333 25.1022597 22 23.5511298 22 25.1022597 22 23.5511298 22 23.5511298 23.5 22 23.5 22 25 26.0358675 25 26.0358675 24.1026667 26.6563194 24.1026667 26.6563194 22.3025 27.2769437 22.3025 27.2769437 21.7023333 27.8973956 21.7023333 27.8973956 21.1023333 28.5178476 21.1023333 28.5178476 20.5023333 29.1384718 20.5023333 29.1384718 19.9021667 29.7573727 19.9021667 29.7573727 19.3021667 30.3793757 19.3021667 30.3793757 18.102 31 18.102 31 16 29.7589238 16"></polygon>
                        <path d="M25.5,0 L25.5,0.610526316 L24.6025,0.610526316 L24.6025,1.52631579 L23.4023333,1.52631579 L23.4023333,3.05297076 L22.5,3.05297076 L22.5,4.57894737 L21,4.57894737 L21,5.54747953 L16.5,5.54747953 L12,5.54747953 L12,4.57894737 L10.5,4.57894737 L10.5,3.05297076 L9.59766667,3.05297076 L9.59766667,1.52631579 L8.3975,1.52631579 L8.3975,0.610526316 L7.5,0.610526316 L7.5,0 L6.00066667,0 L6.00066667,0.610526316 L4.5,0.610526316 L4.5,3.05297076 L3,3.05297076 L3,5.4954152 L2.4,5.4954152 L2.4,9.76604678 L3.60033333,9.76604678 L3.60033333,12.2117135 L3.00033333,12.2117135 L3,12.2117135 L3,13.7368421 L1.5,13.7368421 L1.5,14.6526316 L1.5,15.2631579 L0.6,15.2631579 L0.6,18.3178246 L0,18.3178246 L0,19.8421053 L0.6,19.8421053 L0.6,20.7567076 L1.5,20.7567076 L1.5,21.9779298 L3,21.9779298 L3,22.8947368 L4.2005,22.8947368 L4.2005,24.4210526 L5.42416667,24.4210526 L5.42416667,25.9473684 L7.5,25.9473684 L7.5,26.8631579 L7.5,27.4736842 L8.40066667,27.4736842 L9.60083333,27.4736842 L9.60083333,29 L16.5,29 L23.3991667,29 L23.3991667,27.4736842 L24.5991667,27.4736842 L25.5,27.4736842 L25.5,26.8631579 L25.5,25.9473684 L27.5758333,25.9473684 L27.5758333,24.4210526 L28.7995,24.4210526 L28.7995,22.8947368 L30,22.8947368 L30,21.9779298 L31.5,21.9779298 L31.5,20.7567076 L32.4,20.7567076 L32.4,19.8421053 L33,19.8421053 L33,18.3178246 L32.4,18.3178246 L32.4,15.2631579 L31.5,15.2631579 L31.5,13.7368421 L30,13.7368421 L30,12.2117135 L29.9996667,12.2117135 L29.3996667,12.2117135 L29.3996667,9.76604678 L30.6,9.76604678 L30.6,5.4954152 L30,5.4954152 L30,3.05297076 L28.5,3.05297076 L28.5,0.610526316 L26.9993333,0.610526316 L26.9993333,0 L25.5,0 Z M21,7.19844444 L21,6.71307602 L23.0976667,6.71307602 L23.0976667,5.54747953 L24,5.54747953 L24,4.57894737 L24.6025,4.57894737 L24.6025,3.05297076 L25.5,3.05297076 L25.5,1.52631579 L27.0028333,1.52631579 L27.0028333,3.05263158 L27.0028333,3.66010526 L28.2028333,3.66010526 L28.2028333,6.10254971 L28.803,6.10254971 L28.803,9.15789474 L28.2028333,9.15789474 L28.2028333,10.6842105 L27.6028333,10.6842105 L27.6028333,12.2105263 L28.2028333,12.2105263 L28.2028333,12.818848 L28.2028333,13.7368421 L28.803,13.7368421 L29.403,13.7368421 L29.403,14.6505965 L30.0031667,14.6505965 L30.0031667,15.8718187 L30.0031667,16.7894737 L31.2031667,16.7894737 L31.2031667,18.9283509 L30.6031667,18.9283509 L30.6031667,20.1495731 L29.3996667,20.1495731 L29.3996667,21.3707953 L28.7995,21.3707953 L28.7995,21.981152 L27.5758333,21.981152 L27.5758333,22.8947368 L27.0123333,22.8947368 L27.0123333,24.4210526 L26.4026667,24.4210526 L25.5,24.4210526 L24,24.4210526 L24,25.9473684 L22.5,25.9473684 L22.5,27.1716433 L16.5,27.1716433 L10.7976667,27.1716433 L10.7976667,25.9473684 L9,25.9473684 L9,24.4210526 L7.5,24.4210526 L6.59733333,24.4210526 L5.98766667,24.4210526 L5.98766667,22.8947368 L5.42416667,22.8947368 L5.42416667,21.981152 L4.2005,21.981152 L4.2005,21.3707953 L3.60033333,21.3707953 L3.60033333,20.1495731 L2.39683333,20.1495731 L2.39683333,18.9283509 L1.79683333,18.9283509 L1.79683333,16.7894737 L2.99683333,16.7894737 L2.99683333,15.8718187 L2.99683333,14.6505965 L3.597,14.6505965 L3.597,13.7368421 L4.197,13.7368421 L4.79716667,13.7368421 L4.79716667,12.818848 L4.79716667,12.2105263 L5.39716667,12.2105263 L5.39716667,10.6842105 L4.79716667,10.6842105 L4.79716667,9.15789474 L4.197,9.15789474 L4.197,6.10254971 L4.79716667,6.10254971 L4.79716667,3.66010526 L5.99716667,3.66010526 L5.99716667,1.52631579 L7.5,1.52631579 L7.5,3.05297076 L8.3975,3.05297076 L8.3975,4.57894737 L9,4.57894737 L9,5.54747953 L9.90233333,5.54747953 L9.90233333,6.71307602 L12,6.71307602 L12,7.19844444 L21,7.19844444 Z" id="Fill-11" fill="#000000"></path>
                        <polygon id="Fill-12" fill="#000000" points="8 18 11 18 11 15 8 15"></polygon>
                        <polygon id="Fill-13" fill="#000000" points="22 18 25 18 25 15 22 15"></polygon>
                        <polygon id="Fill-14" fill="#000000" points="12 20.7139778 13.5 20.7139778 13.5 23.544 15 23.544 15 25 18 25 18 23.544 19.5 23.544 19.5 20.7139778 21 20.7139778 21 18 12 18"></polygon>
                        <polygon id="Fill-15" fill="#AFF000" points="8 16 9 16 9 15 8 15"></polygon>
                        <polygon id="Fill-16" fill="#FFFFFF" points="8 15 11 15 11 14 8 14"></polygon>
                        <polygon id="Fill-17" fill="#FFFFFF" points="8 19 11 19 11 18 8 18"></polygon>
                        <polygon id="Fill-18" fill="#AFF000" points="22 16 23 16 23 15 22 15"></polygon>
                        <polygon id="Fill-19" fill="#FFFFFF" points="11 18 12 18 12 15 11 15"></polygon>
                        <polygon id="Fill-20" fill="#FFFFFF" points="7 18 8 18 8 15 7 15"></polygon>
                        <polygon id="Fill-21" fill="#FFFFFF" points="22 15 25 15 25 14 22 14"></polygon>
                        <polygon id="Fill-22" fill="#FFFFFF" points="22 19 25 19 25 18 22 18"></polygon>
                        <polygon id="Fill-23" fill="#FFFFFF" points="25 18 26 18 26 15 25 15"></polygon>
                        <polygon id="Fill-24" fill="#FFFFFF" points="22 18 23 18 23 15 22 15"></polygon>
                    </g>
                    <polygon id="Fill-8" fill="#97D700" points="31 17.9641381 30.4082907 17.9641381 30.4082907 19.15463 29.2214206 19.15463 29.2214206 20.3449567 28.6295469 20.3449567 28.6295469 20.9402853 27.4227887 20.9402853 27.4227887 21.8307157 26.8669108 21.8307157 26.8669108 23.318624 26.2658328 23.318624 25.375639 23.318624 23.8963659 23.318624 23.8963659 24.8065322 22.4170927 24.8065322 22.4170927 26 16.5 26 10.8764609 26 10.8764609 24.8065322 9.10363414 24.8065322 9.10363414 23.318624 7.62436097 23.318624 6.73400288 23.318624 6.13292488 23.318624 6.13292488 21.8307157 5.57721126 21.8307157 5.57721126 20.9402853 4.37028871 20.9402853 4.37028871 20.3449567 3.77857944 20.3449567 3.77857944 19.15463 2.59170927 19.15463 2.59170927 17.9641381 2 17.9641381 2 15.8790827 3.18341854 15.8790827 3.18341854 14.9845191 3.18341854 13.7941925 3.77529217 13.7941925 3.77529217 12.9032661 4.36700144 12.9032661 4.95871071 12.9032661 4.95871071 12.0085373 4.95871071 11.4153579 5.55058434 11.4153579 5.55058434 9.92744959 4.95871071 9.92744959 4.95871071 8.43954133 4.36700144 8.43954133 4.36700144 5.46107963 4.95871071 5.46107963 4.95871071 3.08009576 5.55058434 3.08009576 5.55058434 2.48790827 6.14229361 2.48790827 6.14229361 1 7.62436097 1 7.62436097 2.48823891 8.50929505 2.48823891 8.50929505 3.97581653 9.10363414 3.97581653 9.10363414 4.91981166 9.99349913 4.91981166 9.99349913 6.05624293 12.0621805 6.05624293 12.0621805 6.52939776 20.9378195 6.52939776 20.9378195 6.05624293 23.0063365 6.05624293 23.0063365 4.91981166 23.8963659 4.91981166 23.8963659 3.97581653 24.4905406 3.97581653 24.4905406 2.48823891 25.375639 2.48823891 25.375639 1 26.8577064 1 26.8577064 2.48790827 27.4494157 2.48790827 27.4494157 3.08009576 28.0411249 3.08009576 28.0411249 5.46107963 28.6329986 5.46107963 28.6329986 8.43954133 28.0411249 8.43954133 28.0411249 9.92744959 27.4494157 9.92744959 27.4494157 11.4153579 28.0411249 11.4153579 28.0411249 12.0085373 28.0411249 12.9032661 28.6329986 12.9032661 29.2247078 12.9032661 29.2247078 13.7941925 29.8164171 13.7941925 29.8164171 14.9845191 29.8164171 15.8790827 31 15.8790827"></polygon>
                    <polygon id="Fill-9" fill="#AFF000" points="10.5006664 7.48657538 10.5006664 5.22908569 9.00133274 5.22908569 9.00133274 3.61454285 7.50199911 3.61490163 7.50199911 2 6 2 6.00266548 5.22908569 7.50199911 5.22908569 7.50199911 6.84362854 8.70246557 6.84362854 9.00133274 6.84362854 9.00133274 8 12 8 12 7.48657538"></polygon>
                    <polygon id="Fill-10" fill="#AFF000" points="29.7589238 13.8981667 29.1384718 13.8981667 29.1384718 13 27.8973956 13 27.8973956 11.5 27.2769437 11.5 27.2769437 10 27.8953275 10 27.8973956 8.494 28.5178476 8.494 28.5178476 5.49733333 27.8973956 5.49733333 27.8989468 3.0975 27.2767714 3.0975 27.2767714 2.5 26.659594 2.5 26.659594 1 25.1022597 1 25.1022597 1.897 25.1022597 4 26.6533895 4 26.6533895 7 27.2745308 7 27.2745308 8.5 26.6533895 8.5 26.6533895 10 25.1022597 10 25.1022597 11.5 26.6540789 11.5 26.6540789 12.0985 26.6540789 12.698 26.6533895 12.698 26.6533895 14.5 28.2045193 14.5 28.2045193 15.0983333 28.2045193 16 29.2391229 16 29.2391229 18.102 28.2045193 18.102 28.2045193 19.3021667 28.2045193 19.9021667 26.6533895 19.9021667 26.6533895 20.5 26.6533895 20.5023333 26.6533895 21.1023333 25.1022597 21.1023333 25.1022597 22 23.5511298 22 25.1022597 22 23.5511298 22 23.5511298 23.5 22 23.5 22 25 26.0358675 25 26.0358675 24.1026667 26.6563194 24.1026667 26.6563194 22.3025 27.2769437 22.3025 27.2769437 21.7023333 27.8973956 21.7023333 27.8973956 21.1023333 28.5178476 21.1023333 28.5178476 20.5023333 29.1384718 20.5023333 29.1384718 19.9021667 29.7573727 19.9021667 29.7573727 19.3021667 30.3793757 19.3021667 30.3793757 18.102 31 18.102 31 16 29.7589238 16"></polygon>
                    <path d="M25.5,0 L25.5,0.610526316 L24.6025,0.610526316 L24.6025,1.52631579 L23.4023333,1.52631579 L23.4023333,3.05297076 L22.5,3.05297076 L22.5,4.57894737 L21,4.57894737 L21,5.54747953 L16.5,5.54747953 L12,5.54747953 L12,4.57894737 L10.5,4.57894737 L10.5,3.05297076 L9.59766667,3.05297076 L9.59766667,1.52631579 L8.3975,1.52631579 L8.3975,0.610526316 L7.5,0.610526316 L7.5,0 L6.00066667,0 L6.00066667,0.610526316 L4.5,0.610526316 L4.5,3.05297076 L3,3.05297076 L3,5.4954152 L2.4,5.4954152 L2.4,9.76604678 L3.60033333,9.76604678 L3.60033333,12.2117135 L3.00033333,12.2117135 L3,12.2117135 L3,13.7368421 L1.5,13.7368421 L1.5,14.6526316 L1.5,15.2631579 L0.6,15.2631579 L0.6,18.3178246 L0,18.3178246 L0,19.8421053 L0.6,19.8421053 L0.6,20.7567076 L1.5,20.7567076 L1.5,21.9779298 L3,21.9779298 L3,22.8947368 L4.2005,22.8947368 L4.2005,24.4210526 L5.42416667,24.4210526 L5.42416667,25.9473684 L7.5,25.9473684 L7.5,26.8631579 L7.5,27.4736842 L8.40066667,27.4736842 L9.60083333,27.4736842 L9.60083333,29 L16.5,29 L23.3991667,29 L23.3991667,27.4736842 L24.5991667,27.4736842 L25.5,27.4736842 L25.5,26.8631579 L25.5,25.9473684 L27.5758333,25.9473684 L27.5758333,24.4210526 L28.7995,24.4210526 L28.7995,22.8947368 L30,22.8947368 L30,21.9779298 L31.5,21.9779298 L31.5,20.7567076 L32.4,20.7567076 L32.4,19.8421053 L33,19.8421053 L33,18.3178246 L32.4,18.3178246 L32.4,15.2631579 L31.5,15.2631579 L31.5,13.7368421 L30,13.7368421 L30,12.2117135 L29.9996667,12.2117135 L29.3996667,12.2117135 L29.3996667,9.76604678 L30.6,9.76604678 L30.6,5.4954152 L30,5.4954152 L30,3.05297076 L28.5,3.05297076 L28.5,0.610526316 L26.9993333,0.610526316 L26.9993333,0 L25.5,0 Z M21,7.19844444 L21,6.71307602 L23.0976667,6.71307602 L23.0976667,5.54747953 L24,5.54747953 L24,4.57894737 L24.6025,4.57894737 L24.6025,3.05297076 L25.5,3.05297076 L25.5,1.52631579 L27.0028333,1.52631579 L27.0028333,3.05263158 L27.0028333,3.66010526 L28.2028333,3.66010526 L28.2028333,6.10254971 L28.803,6.10254971 L28.803,9.15789474 L28.2028333,9.15789474 L28.2028333,10.6842105 L27.6028333,10.6842105 L27.6028333,12.2105263 L28.2028333,12.2105263 L28.2028333,12.818848 L28.2028333,13.7368421 L28.803,13.7368421 L29.403,13.7368421 L29.403,14.6505965 L30.0031667,14.6505965 L30.0031667,15.8718187 L30.0031667,16.7894737 L31.2031667,16.7894737 L31.2031667,18.9283509 L30.6031667,18.9283509 L30.6031667,20.1495731 L29.3996667,20.1495731 L29.3996667,21.3707953 L28.7995,21.3707953 L28.7995,21.981152 L27.5758333,21.981152 L27.5758333,22.8947368 L27.0123333,22.8947368 L27.0123333,24.4210526 L26.4026667,24.4210526 L25.5,24.4210526 L24,24.4210526 L24,25.9473684 L22.5,25.9473684 L22.5,27.1716433 L16.5,27.1716433 L10.7976667,27.1716433 L10.7976667,25.9473684 L9,25.9473684 L9,24.4210526 L7.5,24.4210526 L6.59733333,24.4210526 L5.98766667,24.4210526 L5.98766667,22.8947368 L5.42416667,22.8947368 L5.42416667,21.981152 L4.2005,21.981152 L4.2005,21.3707953 L3.60033333,21.3707953 L3.60033333,20.1495731 L2.39683333,20.1495731 L2.39683333,18.9283509 L1.79683333,18.9283509 L1.79683333,16.7894737 L2.99683333,16.7894737 L2.99683333,15.8718187 L2.99683333,14.6505965 L3.597,14.6505965 L3.597,13.7368421 L4.197,13.7368421 L4.79716667,13.7368421 L4.79716667,12.818848 L4.79716667,12.2105263 L5.39716667,12.2105263 L5.39716667,10.6842105 L4.79716667,10.6842105 L4.79716667,9.15789474 L4.197,9.15789474 L4.197,6.10254971 L4.79716667,6.10254971 L4.79716667,3.66010526 L5.99716667,3.66010526 L5.99716667,1.52631579 L7.5,1.52631579 L7.5,3.05297076 L8.3975,3.05297076 L8.3975,4.57894737 L9,4.57894737 L9,5.54747953 L9.90233333,5.54747953 L9.90233333,6.71307602 L12,6.71307602 L12,7.19844444 L21,7.19844444 Z" id="Fill-11" fill="#000000"></path>
                    <polygon id="Fill-12" fill="#000000" points="8 18 11 18 11 15 8 15"></polygon>
                    <polygon id="Fill-13" fill="#000000" points="22 18 25 18 25 15 22 15"></polygon>
                    <polygon id="Fill-14" fill="#000000" points="12 20.7139778 13.5 20.7139778 13.5 23.544 15 23.544 15 25 18 25 18 23.544 19.5 23.544 19.5 20.7139778 21 20.7139778 21 18 12 18"></polygon>
                    <polygon id="Fill-15" fill="#AFF000" points="8 16 9 16 9 15 8 15"></polygon>
                    <polygon id="Fill-16" fill="#FFFFFF" points="8 15 11 15 11 14 8 14"></polygon>
                    <polygon id="Fill-17" fill="#FFFFFF" points="8 19 11 19 11 18 8 18"></polygon>
                    <polygon id="Fill-18" fill="#AFF000" points="22 16 23 16 23 15 22 15"></polygon>
                    <polygon id="Fill-19" fill="#FFFFFF" points="11 18 12 18 12 15 11 15"></polygon>
                    <polygon id="Fill-20" fill="#FFFFFF" points="7 18 8 18 8 15 7 15"></polygon>
                    <polygon id="Fill-21" fill="#FFFFFF" points="22 15 25 15 25 14 22 14"></polygon>
                    <polygon id="Fill-22" fill="#FFFFFF" points="22 19 25 19 25 18 22 18"></polygon>
                    <polygon id="Fill-23" fill="#FFFFFF" points="25 18 26 18 26 15 25 15"></polygon>
                    <polygon id="Fill-24" fill="#FFFFFF" points="21 18 22 18 22 15 21 15"></polygon>
                </g>
                <g id="Group-10" transform="translate(38.000000, 7.000000)" fill="#FFFFFF">
                    <polygon id="Fill-1" points="8.57170051 0 8.57170051 8.82666667 6.89133883 8.79611111 6.89133883 6.72722222 5.1686231 6.72722222 5.14340102 8.82666667 3.42877538 8.82666667 3.42877538 0 0 0 0 15 3.42877538 15 3.42877538 12.9422222 5.14340102 12.9422222 5.14340102 10.8844444 6.85707487 10.8844444 6.85707487 12.9422222 8.57170051 12.9422222 8.57170051 15 12 15 12 0"></polygon>
                    <path d="M16.7145576,0 L16.7145576,2.05777778 L15,2.05777778 L15,12.9422222 L16.7145576,12.9422222 L16.7145576,15 L25.2859182,15 L25.2859182,12.9422222 L27,12.9422222 L27,2.05777778 L25.2859182,2.05777778 L25.2859182,0 L16.7145576,0 Z M18.4286394,12.9416667 L23.5713606,12.9416667 L23.5713606,2.05777778 L18.4286394,2.05777778 L18.4286394,12.9416667 Z" id="Fill-2"></path>
                    <polygon id="Fill-3" points="38.5717005 0 38.5717005 2.05777778 36.8575508 2.05777778 36.8575508 4.11555556 35.143401 4.11555556 35.143401 2.05777778 33.4292513 2.05777778 33.4292513 0 30 0 30 15 33.4292513 15 33.4292513 6.17333333 35.143401 6.17333333 35.143401 8.23111111 36.8575508 8.23111111 36.8575508 6.17333333 38.5717005 6.17333333 38.5717005 15 42 15 42 0"></polygon>
                    <path d="M45,0 L45,15 L55.2853744,15 L55.2853744,12.9422222 L57,12.9422222 L57,8.23111111 L55.2853744,8.23111111 L55.2853744,6.17333333 L57,6.17333333 L57,2.05777778 L55.2853744,2.05777778 L55.2853744,0 L45,0 Z M48.4282995,6.17333333 L53.5712246,6.17333333 L53.5712246,2.05777778 L48.4282995,2.05777778 L48.4282995,6.17333333 Z M48.4282995,12.9422222 L53.5712246,12.9422222 L53.5712246,8.23111111 L48.4282995,8.23111111 L48.4282995,12.9422222 Z" id="Fill-4"></path>
                    <path d="M62.4282995,0 L62.4282995,2.05777778 L60.7136739,2.05777778 L60.7136739,4.11555556 L59,4.11555556 L59,15 L62.4282995,15 L62.4282995,10.2888889 L67.5707487,10.2888889 L67.5707487,15 L71,15 L71,4.11555556 L69.2853744,4.11555556 L69.2853744,2.05777778 L67.5707487,2.05777778 L67.5707487,0 L62.4282995,0 Z M62.4282995,4.11555556 L64.1424492,4.11555556 L64.1424492,2.05777778 L65.856599,2.05777778 L65.856599,4.11555556 L67.5707487,4.11555556 L67.5707487,8.23111111 L62.4282995,8.23111111 L62.4282995,4.11555556 Z" id="Fill-5"></path>
                    <polygon id="Fill-6" points="71 0 71 2.05777778 74.9998149 2.05777778 75.0103641 15 79.0001851 15 79.0001851 2.05777778 83 2.05777778 83 0"></polygon>
                    <polygon id="Fill-7" points="84 0 84 2.05777778 84 6.76888889 84 8.82666667 93.1225637 8.82666667 93.1225637 12.9422222 87.077024 12.9422222 87.077024 10.8538889 84 10.8538889 84 12.9422222 85.0215517 12.9422222 85.0215517 15 96 15 96 6.76888889 87.0472264 6.76888889 87.0472264 2.05777778 92.8116567 2.05777778 92.8116567 4.11555556 96 4.11555556 96 2.05777778 94.8367691 2.05777778 94.8367691 0"></polygon>
                </g>
            </g>
        </g>
    </g>
</svg>